<?xml version="1.0" encoding="utf-8"?>
<!-- Generator: Adobe Illustrator 26.0.3, SVG Export Plug-In . SVG Version: 6.00 Build 0)  -->
<svg version="1.1" id="Слой_1" xmlns="http://www.w3.org/2000/svg" xmlns:xlink="http://www.w3.org/1999/xlink" x="0px" y="0px"
	 viewBox="0 0 89.7 100" style="enable-background:new 0 0 89.7 100;" xml:space="preserve">
<style type="text/css">
	.st0{fill:#942D32;}
	.st1{fill:url(#SVGID_1_);}
	.st2{fill:#E02B2B;}
	.st3{fill:url(#SVGID_00000177469002814440017210000003933099855277724331_);}
	.st4{fill:url(#SVGID_00000005263646687657861380000005066893492690577598_);}
	.st5{fill:url(#SVGID_00000049184533624118042120000007285465425624269245_);}
	.st6{fill:url(#SVGID_00000164514148886623156130000007767253170382353800_);}
	.st7{fill:#A12930;}
</style>
<g>
	<path class="st0" d="M39.6,0C27.5,21.7,17,44.2,8.2,67.4c-0.7,1.9-1.4,3.6-1.9,5.1c-1.4,3.8-2.2,6-2.4,6.4c0.5-1.9,1.1-4,1.7-6.1
		c0.4-1.5,0.8-3,1.3-4.5c3.3-11.4,7.6-23.7,10.4-31.9c4.2-11.7,9.2-23,15-33.9C33,0.9,34.6,0,36.3,0H39.6z"/>
	
		<linearGradient id="SVGID_1_" gradientUnits="userSpaceOnUse" x1="-44.1922" y1="99.186" x2="-51.5163" y2="136.5959" gradientTransform="matrix(3 0 0 3 196 -298)">
		<stop  offset="0.457" style="stop-color:#CB2123"/>
		<stop  offset="1" style="stop-color:#752425"/>
	</linearGradient>
	<path class="st1" d="M19.3,63.3c3.1-5.6,23.1-46.6,24.5-49.1c0.3-0.6,0.7-1,1.1-1s0.9,0.4,1.4,1.2c0.9,1.6,9.8,19.8,12.6,26.2
		C56.1,42.1,25.7,58.2,19.3,63.3z M87.8,98L87.8,98c1.4-1.1,2.2-2.9,1.7-4.7c-0.4-1.3-0.7-2.5-0.9-3.1c-0.2-0.6-1-3.6-2.2-7.9
		c-1.4-4.2-2.9-8.4-4.5-12.6c-2-5.2-4.1-10.3-6.2-15.4C73.3,48.7,71,43.2,68.6,38C60.3,19.9,52.8,5.2,50,0H39.6
		C27.5,21.7,17,44.2,8.2,67.4c-0.7,1.9-1.4,3.6-1.9,5.1c-1.4,3.7-2.2,6-2.4,6.4l-0.3,1.2c-1.5,5.4-2.7,10.2-3.5,13.5
		c-0.4,1.6,0.2,3.3,1.4,4.3c1.1,0.5,2.3,0.9,3.8,1.3c1.4-4.7,6.1-16.7,7.3-19.9l0.1-0.3l0,0c0.8-2.2,2.2-5.5,3.4-8.7
		C32.2,64,48.5,59,65.4,55.4c2.8,6.1,5.9,12.3,7,14.8c0,0.1,0.1,0.1,0.1,0.2c0,0,0.1,0.1,0.1,0.2c0,0,0,0.1,0.1,0.2s0.1,0.3,0.2,0.4
		c1.3,2.9,7.2,15,9,19.3c0.8,1.9,1.5,3.9,2.1,5.6c0.1,0.2,0.1,0.4,0.2,0.6c0.3,0.9,0.6,1.7,0.7,2.3v0.1l0,0L87.8,98z"/>
	<path class="st2" d="M86.3,82.3c-1.4-4.2-2.9-8.4-4.5-12.6c-2-5.2-4.1-10.3-6.2-15.4c-2.4-5.6-4.7-11.1-7.1-16.3
		C60.3,19.9,52.8,5.2,50,0h2.2c2,0,3.9,1.1,4.9,2.8c4.1,7.4,7.7,15,10.8,22.9c1.2,3,2.9,6.6,4.2,10.7c1.8,5.4,4.6,11.5,6.4,17.6
		c1.6,5.4,3.1,10.8,4.4,15.7C84.3,74.5,85.4,78.8,86.3,82.3z"/>
	
		<linearGradient id="SVGID_00000116234868106463354910000011462739258547117492_" gradientUnits="userSpaceOnUse" x1="-52.3409" y1="117.4541" x2="-51.9439" y2="107.9136" gradientTransform="matrix(3 0 0 3 196 -298)">
		<stop  offset="0.1" style="stop-color:#B75E5A"/>
		<stop  offset="0.949" style="stop-color:#6C272D"/>
	</linearGradient>
	<path style="fill:url(#SVGID_00000116234868106463354910000011462739258547117492_);" d="M58.9,40.7c-2.5,1.4-3.8,2.2-6.7,3.7
		c-2.7-7.6-5.2-14.2-5.8-15.7c-0.9-2.2-2.4-2-3.2,0.3c-4.4,12.3-7.7,20.4-9.6,25.5c-6.2,3.4-9.9,6.1-14.4,8.9l0,0
		c3.1-5.6,23.2-46.7,24.5-49.1l0,0c0.6-1,0.9-1.4,1.2-1.4c0.4,0,0.7,0.8,1.3,1.7C47.3,16,56.1,34.4,58.9,40.7z"/>
	
		<linearGradient id="SVGID_00000072266922766985078040000010255339293471964323_" gradientUnits="userSpaceOnUse" x1="-45.4961" y1="120.8493" x2="-57.819" y2="125.3218" gradientTransform="matrix(3 0 0 3 196 -298)">
		<stop  offset="0" style="stop-color:#A32424"/>
		<stop  offset="1" style="stop-color:#752425"/>
	</linearGradient>
	<path style="fill:url(#SVGID_00000072266922766985078040000010255339293471964323_);" d="M72.4,70.2c-3.5,0.3-6,0.7-10.6,1.2h-0.3
		c-9.4,1.1-21,2.6-34.4,4.8l-1.3,0.2c-4.6,0.8-8.1,1.7-13.1,2.6c0.8-2.2,2.2-5.5,3.4-8.7l0,0C32,63.6,48.4,58.6,65.3,55.4
		C68.2,61.5,71.3,67.7,72.4,70.2z"/>
	
		<linearGradient id="SVGID_00000001650691846275203470000000307917714935450786_" gradientUnits="userSpaceOnUse" x1="-61.5941" y1="132.8295" x2="-58.4607" y2="123.7227" gradientTransform="matrix(3 0 0 3 196 -298)">
		<stop  offset="0.343" style="stop-color:#D77670"/>
		<stop  offset="0.949" style="stop-color:#A62224"/>
	</linearGradient>
	<path style="fill:url(#SVGID_00000001650691846275203470000000307917714935450786_);" d="M25.8,76.5c-0.5,1.3-1,2.6-1.5,3.9
		c-0.4,1-0.8,2.1-1.2,3.1c-1.6,4.2-3,8-4.2,11c-0.2,0.7-0.5,1.4-0.7,2c-0.4,1.1-0.8,2.1-1.1,2.8c-2.6,0.7-4.8,0.7-6.5,0.7l0,0
		c-0.2,0-0.4,0-0.5,0l-0.8-0.1H9.2c-0.1,0-0.3,0-0.4,0H8.7c-1.2-0.1-2.4-0.4-3.4-0.6c1.4-4.7,6.1-16.7,7.3-19.9l0.1-0.3
		C17.7,78.1,21.2,77.2,25.8,76.5z"/>
	
		<linearGradient id="SVGID_00000139989071484082345000000008566694519507990434_" gradientUnits="userSpaceOnUse" x1="-37.9144" y1="133.551" x2="-44.3386" y2="121.7894" gradientTransform="matrix(3 0 0 3 196 -298)">
		<stop  offset="0.343" style="stop-color:#D77670"/>
		<stop  offset="0.949" style="stop-color:#A62224"/>
	</linearGradient>
	<path style="fill:url(#SVGID_00000139989071484082345000000008566694519507990434_);" d="M84.9,99L84.9,99
		c-1.8,0.4-3.1,0.5-5.6,0.5c-3.1,0.1-4.9,0.1-6.8-0.4c-0.5-1.3-1-2.8-1.6-4.4v-0.1c-0.6-1.6-1.3-3.3-2-5.2c-0.5-1.2-1-2.5-1.5-3.8
		c-1-2.6-2.1-5.3-3.2-8c-0.8-2.1-1.6-4.1-2.5-6.2c4.6-0.5,7.1-0.9,10.6-1.2l0,0c0,0.1,0.1,0.3,0.1,0.4c0,0,0,0.1,0.1,0.2
		s0.1,0.3,0.2,0.4c1.3,2.9,7.2,15,9,19.3c0.8,1.9,1.5,3.9,2.1,5.6c0.1,0.2,0.1,0.4,0.2,0.6c0.3,0.9,0.6,1.7,0.7,2.3
		C84.9,98.9,84.9,98.9,84.9,99z"/>
	<path class="st7" d="M72.5,99c-0.3-0.1-0.5-0.2-0.8-0.3c-1-0.4-1.8-0.8-2.3-1l0,0l-0.2-0.2c-1.5-1-2.5-2.7-2.6-4.5
		c-0.1-1.9-0.4-3.8-0.8-5.7c-1.1-5.4-2.5-10.7-4.1-15.9h0.2c1.9,4.8,3.9,9.7,5.7,14.2c0.5,1.3,1,2.6,1.5,3.8
		C70.3,93.1,71.6,96.5,72.5,99z"/>
	<path class="st7" d="M27.2,76.2c-0.6,3.1-1.1,5.7-1.2,6.4c-0.3,1-0.5,5.7-0.6,9.1c-0.1,2.2-1.3,4.3-3.2,5.5l-1.5,0.9
		c-0.7,0.3-1.4,0.6-2.2,0.8c-0.4,0.1-0.9,0.3-1.3,0.4c0.3-0.8,0.7-1.8,1.1-2.8c0.2-0.6,0.5-1.3,0.7-2c1.2-3.1,2.6-6.9,4.2-11
		c0.4-1,0.8-2,1.2-3.1c0.5-1.3,1-2.6,1.5-3.9L27.2,76.2z"/>
</g>
</svg>
