<?xml version="1.0" encoding="utf-8"?>
<!-- Generator: Adobe Illustrator 26.0.3, SVG Export Plug-In . SVG Version: 6.00 Build 0)  -->
<svg version="1.1"
	 id="svg253" xmlns:cc="http://creativecommons.org/ns#" xmlns:dc="http://purl.org/dc/elements/1.1/" xmlns:inkscape="http://www.inkscape.org/namespaces/inkscape" xmlns:rdf="http://www.w3.org/1999/02/22-rdf-syntax-ns#" xmlns:sodipodi="http://sodipodi.sourceforge.net/DTD/sodipodi-0.dtd" xmlns:svg="http://www.w3.org/2000/svg"
	 xmlns="http://www.w3.org/2000/svg" xmlns:xlink="http://www.w3.org/1999/xlink" x="0px" y="0px" viewBox="0 0 447.8 100"
	 style="enable-background:new 0 0 447.8 100;" xml:space="preserve">
<style type="text/css">
	.st0{fill:#5482AB;}
</style>
<sodipodi:namedview  bordercolor="#666666" borderopacity="1.0" fit-margin-bottom="0" fit-margin-left="0" fit-margin-right="0" fit-margin-top="0" id="base" inkscape:current-layer="layer1" inkscape:cx="84.632779" inkscape:cy="18.897681" inkscape:document-units="mm" inkscape:pageopacity="0.0" inkscape:pageshadow="2" inkscape:window-height="744" inkscape:window-maximized="1" inkscape:window-width="1280" inkscape:window-x="-4" inkscape:window-y="-4" inkscape:zoom="5.2993652" pagecolor="#ffffff" showgrid="false" units="px">
	</sodipodi:namedview>
<g id="layer1" transform="translate(-47.155196,-121.64613)" inkscape:groupmode="layer" inkscape:label="Layer 1">
	<g id="g317" transform="translate(0.13229223,-0.13228907)">
		<path id="path59" inkscape:connector-curvature="0" class="st0" d="M478.3,219.8h16.6l-44.5-98h-5l-44.8,98h17.9l10.6-22.9h38.5
			L478.3,219.8z M435.7,182.6l12.6-27.2l12.6,27.2H435.7z"/>
		<path id="path63" inkscape:connector-curvature="0" class="st0" d="M150.7,123.8h17.9l25.9,64.5l27.2-64.5h16.6l-41.9,98h-5
			L150.7,123.8z"/>
		<path id="path67" inkscape:connector-curvature="0" class="st0" d="M322.4,123.8h17.9l25.9,64.5l27.2-64.5h16.6l-41.9,98h-5
			L322.4,123.8z"/>
		<path id="path69" inkscape:connector-curvature="0" class="st0" d="M308.8,123.6h-56.3v15.6h56.3V123.6z"/>
		<path id="path71" inkscape:connector-curvature="0" class="st0" d="M308.8,164.1h-56.3v15.6h56.3V164.1z"/>
		<path id="path73" inkscape:connector-curvature="0" class="st0" d="M308.8,204.3h-56.3V220h56.3V204.3z"/>
		<path id="path77" inkscape:connector-curvature="0" class="st0" d="M143.7,219.8h17.9l-44.9-98h-5l-27.6,60.8H47l11,14.3h19.7
			l-10.4,22.9h16.6l10.6-22.9h38.5L143.7,219.8z M101.2,182.6l12.6-27.2l12.6,27.2H101.2z"/>
		<path id="path81" inkscape:connector-curvature="0" class="st0" d="M468.1,124.8h-2.3v-1.1h5.9v1.1h-2.3v6h-1.2L468.1,124.8z"/>
		<path id="path93" inkscape:connector-curvature="0" class="st0" d="M472.6,123.7h1.2l2.3,3.3l2.3-3.3h1.2v7.1h-1.2v-3.5
			c0-0.5,0-1,0-1.5l0,0c-0.3,0.4-0.6,0.9-0.9,1.4l-1.3,1.9l-1.3-1.9c-0.3-0.5-0.6-0.9-0.9-1.4l0,0c0,0.5,0,1,0,1.5v3.5h-1.2
			L472.6,123.7z"/>
	</g>
</g>
</svg>
