<?xml version="1.0" encoding="utf-8"?>
<!-- Generator: Adobe Illustrator 26.0.3, SVG Export Plug-In . SVG Version: 6.00 Build 0)  -->
<svg version="1.1" id="Слой_1" xmlns="http://www.w3.org/2000/svg" xmlns:xlink="http://www.w3.org/1999/xlink" x="0px" y="0px"
	 width="100px" height="100px" viewBox="0 0 100 100" style="enable-background:new 0 0 100 100;" xml:space="preserve">
<style type="text/css">
	.st0{fill:#B0361E;}
	.st1{fill:#FFFFFF;}
</style>
<g>
	<path class="st0" d="M50,100c-15,0-29.9,0-44.9,0C1.8,100,0,98.2,0,94.8C0,64.9,0,35,0,5.1C0,1.8,1.8,0,5.1,0C35,0,65,0,94.9,0
		c3.3,0,5.1,1.8,5.1,5.2c0,29.9,0,59.8,0,89.7c0,3.4-1.8,5.2-5.1,5.2C79.9,100,64.9,100,50,100z"/>
	<path class="st1" d="M43.2,86.3c-1.1,1.4-2.4,2.3-4.1,2.4c-2.3,0.2-4-0.7-5.2-2.7c-0.2-0.4-0.3-0.6-0.8-0.2
		c-2.8,2.2-6.7,0.7-7.4-2.8c-0.1-0.5-0.3-0.5-0.7-0.4c-3,0.6-5.4-1.6-5-4.7c0-0.4,0-0.6-0.4-0.5c-2.8,0.1-4.8-3-3.4-5.6
		c0.2-0.4,0.1-0.5-0.2-0.7c-1.8-1.1-2.1-3.6-0.6-5.1c0.3-0.3,0.3-0.5,0-0.8c-0.7-0.7-0.9-1.6-0.5-2.6c0.2-0.4,0-0.5-0.4-0.7
		c-3.3-1.5-4.5-4.9-2.8-8c0.2-0.4,0.2-0.5-0.2-0.7c-3.4-1.3-4.1-5.5-1.3-7.9c0.3-0.3,0.4-0.4,0.1-0.7c-2.1-2.5-1.5-5.5,1.4-6.9
		c0.4-0.2,0.4-0.3,0.2-0.7c-1.4-2.6,0-5.4,2.9-5.8c0.5-0.1,0.7-0.1,0.8-0.8c0.1-2,1.9-3.3,3.9-2.9c0.5,0.1,0.6,0,0.8-0.4
		c0.2-0.8,0.8-1.4,1.5-1.6c0.3-0.1,0.5-0.3,0.4-0.7c-0.3-3.3,1.7-5.9,5-6.3c0.1,0,0.3-0.1,0.4,0c0.7,0.1,0.5-0.3,0.5-0.7
		c-0.3-2.3,0.8-4.3,2.9-5.1c1-0.4,2.1-0.4,3.1,0c0.3,0.1,0.5,0.2,0.7-0.2c1.3-3.4,3.9-4.2,7-2.1c0.5-1,1.2-1.9,2.3-2.3
		c1.7-0.6,3.4,0,4.4,1.5c0.2,0.3,0.4,0.4,0.8,0.2c1.9-1,3.9-0.2,4.7,1.9c0.1,0.2,0.1,0.4,0.5,0.4c2.2-0.1,2.6,0.1,3.6,2.1
		c0.9-1.2,2-2,3.4-2.3c2.4-0.5,4.7,0.5,5.9,2.6c0.3,0.6,0.5,0.5,1,0.2c2.8-2.1,6.6-0.6,7.3,2.9c0.1,0.4,0.1,0.6,0.7,0.5
		c3-0.6,5.4,1.6,5,4.7c-0.1,0.5,0.1,0.5,0.5,0.5c3,0.1,4.7,2.9,3.3,5.6c-0.2,0.4-0.1,0.5,0.2,0.8c1.8,1.2,2.1,3.4,0.6,5.1
		c-0.3,0.3-0.2,0.4,0,0.7c0.7,0.8,1,1.7,0.6,2.8c-0.2,0.4,0,0.5,0.3,0.6c3.1,1,4.7,5,2.9,8.1c-0.2,0.4-0.1,0.5,0.3,0.7
		c3.4,1.3,4,5.8,1.3,7.9c-0.4,0.3-0.3,0.4,0,0.8c2,2.1,1.4,5.4-1.2,6.7c-0.6,0.3-0.7,0.4-0.4,1c1.3,2.3-0.2,5.3-2.9,5.5
		c-0.6,0.1-0.9,0.1-1,0.9c-0.1,1.9-2,3.2-3.8,2.8c-0.5-0.1-0.7,0-0.9,0.5c-0.2,0.8-0.8,1.3-1.5,1.6c-0.4,0.1-0.4,0.3-0.4,0.7
		c0.3,3.3-1.8,6-5.1,6.3c-0.7,0.1-0.8,0.2-0.7,0.9c0.3,3.5-2.6,5.9-5.9,5c-0.5-0.2-0.7-0.1-0.8,0.5c-0.8,2.8-4,3.9-6.3,2.2
		c-0.4-0.3-0.6-0.3-0.9,0.2c-1.4,2.5-4.8,2.6-6.4,0.2c-0.3-0.4-0.4-0.5-0.8-0.2c-1.7,1-4,0.1-4.6-1.8c-0.1-0.3-0.1-0.6-0.5-0.5
		C44.7,88.7,44,88.3,43.2,86.3z M43.1,48.3c0.1,0.2,0.1,0.5,0.5,0.5c0.8-0.1,1.6,0,1.7-1.2c0-0.2,0.2-0.5,0.3-0.7
		c0.3-0.4,0.5-0.8,0.1-1.3c-0.3-0.3-0.3-0.7-0.2-1.1c0.1-0.4,0-0.6-0.4-0.8c-1.6-0.7-2.1-2.6-1.1-4c0.3-0.4,0.2-0.5-0.2-0.8
		c-1.7-1.3-1.8-3.6-0.1-5c0.3-0.3,0.4-0.4,0.1-0.8c-1.7-2.2-1-5,1.5-6c0.5-0.2,0.5-0.4,0.4-0.8c-0.6-1.8-0.1-3.4,1.2-4.6
		c0.7-0.6,1.5-0.9,2.5-1c0.3,0,0.6,0,0.6-0.5c0.1-1.7,0.9-3,2.3-3.9c0.3-0.2,0.3-0.4,0.2-0.7c-0.1-0.3-0.3-0.3-0.6-0.2
		c-1.7,0.7-2.8,0.4-4-0.9c-0.2-0.2-0.3-0.3-0.6-0.1c-1.4,1.1-3,1.2-4.5,0.2c-0.4-0.2-0.4-0.1-0.6,0.2c-1,2.1-2.6,2.9-4.9,2.5
		c-0.5-0.1-0.5,0.1-0.6,0.5c-0.5,2.1-1.7,3.3-3.8,3.7c-0.5,0.1-0.5,0.3-0.3,0.7c0.8,2.7,0,5-2.3,6.6c-0.4,0.2-0.4,0.4-0.1,0.7
		c1.2,1.7,1.2,3.5,0.2,5.2c-0.2,0.3-0.2,0.5,0.1,0.7c1.5,1.1,2,2.7,1.6,4.5c-0.1,0.4,0.1,0.5,0.4,0.6c1.9,0.6,2.8,1.8,2.9,3.7
		c0,0.5,0.1,0.6,0.6,0.6c0.8,0,1.7,0.3,2.1,1c0.6,1,1.2,1.6,2.2,0.9C41.8,46.8,42.6,47.3,43.1,48.3z M55.6,52.4
		c-0.2,0.4-0.5,0.8-0.8,1.2c-0.3,0.3-0.3,0.5,0,0.8c0.5,0.4,0.7,1,0.5,1.6c-0.1,0.4,0,0.5,0.4,0.7c1.6,0.8,2.1,2.5,1.2,4
		c-0.3,0.4-0.1,0.5,0.2,0.8c1.7,1.3,1.8,3.5,0.1,4.9c-0.4,0.4-0.3,0.5-0.1,0.9c1.5,2,0.8,4.9-1.6,5.9c-0.5,0.2-0.6,0.4-0.4,0.9
		c0.8,2.7-0.9,5.4-3.7,5.6c-0.5,0-0.6,0.2-0.6,0.6c-0.1,1.6-0.9,2.8-2.2,3.7c-0.3,0.2-0.5,0.3-0.3,0.7c0.2,0.4,0.4,0.3,0.7,0.2
		c1.5-0.6,2.7-0.3,3.8,1c0.3,0.3,0.4,0.3,0.7,0.1c1.4-1,2.9-1.1,4.4-0.1c0.3,0.2,0.4,0.3,0.6-0.1c1.2-2.2,2.5-2.9,4.9-2.5
		c0.4,0.1,0.5,0,0.6-0.4c0.4-2.1,1.7-3.4,3.8-3.8c0.4-0.1,0.5-0.2,0.3-0.6c-0.8-2.9-0.1-4.9,2.3-6.7c0.3-0.2,0.4-0.3,0.1-0.6
		c-1.2-1.7-1.3-3.5-0.3-5.4c0.2-0.3,0.2-0.4-0.1-0.6c-1.5-1.1-2.1-2.6-1.7-4.5c0.1-0.4,0-0.5-0.4-0.6c-1.8-0.5-2.8-1.9-2.8-3.8
		c0-0.5-0.1-0.6-0.6-0.6c-1.3,0-2.2-0.7-2.7-1.8c-0.2-0.5-0.4-0.5-0.8-0.3c-1.3,0.5-2.6,0.1-3.2-1.1c-0.3-0.5-0.6-0.9-1.3-0.6
		C56,51.3,55.8,51.9,55.6,52.4z M49,56.4c-0.1,0.5-0.5,0.9-1,1c-0.4,0.1-0.5,0.3-0.4,0.7c0.1,1.9-1,3.1-2.9,3.1
		c-0.4,0-0.5,0.1-0.5,0.5c-0.1,2.4-2.5,3.5-4.3,2.7c-0.3-0.1-0.4-0.1-0.6,0.2c-1.3,2.7-3.6,3.4-6,1.7C33,66,32.8,66,32.6,66.3
		c-2,2.5-5.6,1.9-6.9-0.4c-0.2-0.3-0.3-0.3-0.6-0.2c-1.8,0.9-3.6,0.7-5.2-0.6c-0.2-0.1-0.3-0.4-0.5-0.1c-0.2,0.3,0.1,0.3,0.2,0.5
		c1.3,1.1,1.6,2.4,1,3.9c-0.1,0.4,0,0.5,0.3,0.6c1.6,0.8,2.3,2,2.2,3.8c0,0.4,0.1,0.5,0.5,0.5c2.5,0,3.7,0.9,4.4,3.3
		c0.1,0.3,0.2,0.4,0.5,0.3c2.1-0.8,3.9-0.2,5.2,1.6c0.2,0.3,0.4,0.3,0.6,0c1.5-2,4.7-2.6,7-1.2c0.3,0.2,0.5,0.1,0.6-0.2
		c0.8-2,2.4-2.8,4.4-2.8c0.4,0,0.5-0.1,0.6-0.5c0.3-1.8,1.4-2.9,3.1-3.5c0.3-0.1,0.5-0.2,0.4-0.6c-0.4-2,0.3-3.5,2.1-4.4
		c0.3-0.2,0.4-0.3,0.2-0.6C52,64.4,52.1,63.2,53,62c0.2-0.3,0.2-0.4-0.1-0.6c-1.3-1.1-1.4-2.4-0.5-3.9c0.1-0.2,0.3-0.3,0.1-0.5
		c-0.6-0.8-0.8-2.1-2.2-1.3C49.6,55.4,49.1,55.5,49,56.4z M52.1,43.6c0.1-0.3,0.4-0.5,0.7-0.5c0.5-0.1,0.5-0.3,0.4-0.7
		c-0.1-1.7,1.1-3.1,2.8-3.1c0.4,0,0.6-0.1,0.6-0.5c0.2-2.1,2.1-3.4,4.1-2.6c0.5,0.2,0.6,0.1,0.8-0.4c1.1-2.5,3.8-3.2,5.9-1.6
		c0.3,0.3,0.5,0.3,0.8-0.1c1.9-2.2,5.1-2,6.7,0.4c0.3,0.4,0.5,0.4,0.9,0.2c1.8-0.8,3.4-0.6,5,0.6c0.2,0.1,0.3,0.4,0.5,0.1
		c0.2-0.3-0.1-0.3-0.2-0.5c-1.3-1.1-1.6-2.3-1-3.9c0.1-0.3,0.1-0.4-0.2-0.6c-1.6-0.8-2.4-2.1-2.3-3.9c0-0.3,0-0.4-0.4-0.4
		c-2.4,0.1-3.7-0.9-4.5-3.3c-0.1-0.3-0.2-0.4-0.5-0.3c-2.1,0.7-3.9,0.2-5.3-1.6c-0.2-0.3-0.3-0.3-0.6,0c-2.2,2.2-4.1,2.5-7,1.2
		c-0.3-0.1-0.4-0.1-0.6,0.2c-0.8,1.9-2.3,2.8-4.4,2.8c-0.4,0-0.6,0.1-0.6,0.5c-0.3,1.8-1.4,3-3.1,3.5c-0.4,0.1-0.4,0.3-0.4,0.7
		c0.4,1.9-0.3,3.3-2,4.4c-0.3,0.2-0.4,0.3-0.2,0.7c0.6,1.2,0.5,2.3-0.2,3.4c-0.3,0.4-0.3,0.5,0.1,0.8c1.1,0.9,1.4,2.4,0.6,3.5
		c-0.4,0.5-0.4,0.8,0,1.3c0.3,0.3,0.4,0.4,0.8,0.4c0.4-0.1,0.8-0.1,1.2-0.1C51.3,44.4,51.8,44.3,52.1,43.6z M21.9,30.8
		c-0.3,1.7-1.1,2.8-2.9,3.1c-0.4,0-0.4,0.3-0.3,0.6c0.1,1.8-0.6,3.1-2.2,3.9c-0.3,0.1-0.4,0.2-0.2,0.6c1.3,2.2,1.2,3.7-0.5,5.6
		c-0.2,0.3-0.2,0.4,0,0.6c1.7,1.5,2.1,3.2,1.3,5.3c-0.1,0.3-0.1,0.5,0.2,0.6c2.9,0.7,4.4,2.5,4.6,5.5c0,0.4,0.2,0.4,0.5,0.4
		c2.1-0.1,3.6,0.7,4.6,2.5c0.2,0.3,0.3,0.4,0.6,0.2c1.8-0.7,3.4-0.4,4.7,0.9c0.3,0.3,0.4,0.2,0.6,0c1.6-1.4,2.9-1.5,4.9-0.5
		c0.3,0.1,0.4,0.2,0.5-0.1c0.7-1.3,1.8-1.8,3.3-1.6c0.3,0,0.4-0.1,0.5-0.3c0.4-1.8,1.3-2.4,3.1-2.4c0.2,0,0.5,0.1,0.5-0.2
		c0.1-0.6,0.8-0.9,0.8-1.3c0-0.4-0.6-0.9-0.9-1.3c-0.1-0.1-0.1-0.2-0.1-0.3c-0.1-0.4-0.3-0.6-0.8-0.4c-0.5,0.2-1.1,0.2-1.5-0.3
		c-0.3-0.4-0.6-0.2-0.9,0c-1.3,1-3.1,0.6-4-0.9c-0.2-0.4-0.4-0.4-0.8-0.3c-2,0.9-3.9-0.2-4.4-2.3C33,48,32.9,47.9,32.5,48
		c-2.7,0.4-4.7-1.5-4.5-4.2c0-0.5-0.1-0.6-0.5-0.7c-2.9-0.6-4.3-3.4-3.1-6.1c0.2-0.4,0.2-0.6-0.2-0.8c-1.8-1.2-2.4-2.9-2.1-5
		c0-0.2,0.2-0.3,0-0.5C21.9,30.6,21.9,30.7,21.9,30.8z M82,66.5c0.3,0,0.3-0.3,0.2-0.5c-0.1-1.8,0.6-3.2,2.2-3.9
		c0.4-0.2,0.3-0.3,0.1-0.6c-1.3-1.9-1.1-3.9,0.5-5.5c0.3-0.3,0.3-0.5,0-0.8c-1.5-1.3-1.9-3.2-1.2-5.2c0.2-0.5,0-0.6-0.4-0.7
		c-2.7-0.7-4.2-2.5-4.4-5.4c0-0.4-0.2-0.5-0.6-0.5c-2.1,0.2-3.6-0.7-4.6-2.5c-0.1-0.3-0.2-0.4-0.6-0.3c-1.8,0.7-3.4,0.4-4.8-1
		c-0.2-0.2-0.3-0.2-0.6,0c-1.5,1.5-3.2,1.6-4.9,0.6c-0.3-0.2-0.4-0.1-0.5,0.1c-0.7,1.2-1.8,1.7-3.1,1.5c-0.3,0-0.5,0-0.6,0.4
		c-0.3,1.7-1.4,2.5-3.1,2.4c-0.2,0-0.4-0.2-0.5,0.1c-0.2,0.6-0.7,1.2,0,1.8c0.2,0.2,0.3,0.5,0.4,0.7c0.2,0.5,0.4,0.9,1.1,0.7
		c0.4-0.1,0.8,0.1,1.1,0.4c0.3,0.3,0.5,0.3,0.9,0c1.3-1,3.2-0.6,4,0.8c0.3,0.5,0.5,0.5,0.9,0.3c1.8-0.8,3.8,0.2,4.2,2.2
		c0.1,0.6,0.3,0.6,0.9,0.6c2.5-0.3,4.6,1.7,4.3,4.2c-0.1,0.6,0.1,0.7,0.6,0.8c2.8,0.6,4.1,3.3,3,5.9c-0.2,0.4-0.2,0.6,0.2,0.9
		c1.8,1.2,2.4,2.9,2,5c0,0.2-0.2,0.4,0.2,0.6C79.2,68,80.1,66.7,82,66.5z"/>
</g>
</svg>
