<?xml version="1.0" encoding="utf-8"?>
<!-- Generator: Adobe Illustrator 26.0.3, SVG Export Plug-In . SVG Version: 6.00 Build 0)  -->
<svg version="1.1" id="Слой_1" xmlns="http://www.w3.org/2000/svg" xmlns:xlink="http://www.w3.org/1999/xlink" x="0px" y="0px"
	 viewBox="0 0 89.5 100" style="enable-background:new 0 0 89.5 100;" xml:space="preserve">
<style type="text/css">
	.st0{fill:#0277BD;}
	.st1{fill:#039BE5;}
	.st2{fill:#FFFFFF;}
	.st3{fill:#EEEEEE;}
</style>
<g>
	<path class="st0" d="M89.5,0H0l7.9,89.5L44.7,100l36.8-10.5L89.5,0L89.5,0z"/>
	<path class="st1" d="M44.7,7.9v83.9l29.5-8.4l6.6-75.5H44.7z"/>
	<path class="st2" d="M68.7,21.1H44.7v10.5h12.9l-0.8,10.5H44.7v10.5h11.6l-0.8,11.8l-10.8,3.7v11.1l20.8-6.8l1.8-30.3l0,0
		L68.7,21.1z"/>
	<path class="st3" d="M44.7,21.1v10.5H21.3l-0.8-10.5H44.7z M32.6,42.1l0.5,10.5h11.6V42.1H32.6z M33.7,57.9H23.2l0.8,14.5l20.8,6.8
		V68.2l-10.8-3.7L33.7,57.9z"/>
</g>
</svg>
