<?xml version="1.0" encoding="utf-8"?>
<!-- Generator: Adobe Illustrator 26.0.3, SVG Export Plug-In . SVG Version: 6.00 Build 0)  -->
<svg version="1.1" id="Слой_1" xmlns="http://www.w3.org/2000/svg" xmlns:xlink="http://www.w3.org/1999/xlink" x="0px" y="0px"
	 width="100px" height="100px" viewBox="0 0 100 100" style="enable-background:new 0 0 100 100;" xml:space="preserve">
<style type="text/css">
	.st0{fill:none;}
	.st1{fill:#5865F2;}
</style>
<circle class="st0" cx="50" cy="50" r="50"/>
<path id="path815" class="st1" d="M77.7,24.5c-5.2-2.4-10.7-4.2-16.5-5.1c-0.7,1.3-1.5,3-2.1,4.4c-6.1-0.9-12.3-0.9-18.3,0
	c-0.6-1.3-1.4-3.1-2.1-4.4c-5.8,1-11.3,2.8-16.5,5.1C11.8,40.2,8.9,55.4,10.4,70.4c6.9,5.1,13.6,8.2,20.2,10.2
	c1.7-2.2,3.1-4.6,4.4-7c-2.4-0.9-4.7-2-6.8-3.3c0.6-0.4,1.1-0.9,1.7-1.3C43,75,57.3,75,70.3,69c0.6,0.4,1.1,0.9,1.7,1.3
	c-2.1,1.3-4.5,2.4-6.8,3.3c1.2,2.5,2.7,4.8,4.4,7c6.6-2,13.3-5.1,20.2-10.3C91.3,53,86.7,37.9,77.7,24.5z M36.7,61.2
	c-3.9,0-7.2-3.7-7.2-8.1s3.2-8.2,7.2-8.2c4,0,7.2,3.7,7.2,8.1C43.9,57.5,40.7,61.2,36.7,61.2z M63.3,61.2c-3.9,0-7.2-3.7-7.2-8.1
	s3.2-8.1,7.2-8.1c4,0,7.2,3.7,7.2,8.1C70.4,57.5,67.2,61.2,63.3,61.2z"/>
</svg>
