<?xml version="1.0" encoding="utf-8"?>
<!-- Generator: Adobe Illustrator 26.0.3, SVG Export Plug-In . SVG Version: 6.00 Build 0)  -->
<svg version="1.1" id="Слой_1" xmlns="http://www.w3.org/2000/svg" xmlns:xlink="http://www.w3.org/1999/xlink" x="0px" y="0px"
	 viewBox="0 0 100 100" style="enable-background:new 0 0 100 100;" xml:space="preserve">
<style type="text/css">
	.st0{fill:#FFFFFF;}
	.st1{fill:#EE5033;}
</style>
<path class="st0" d="M45.3,2c2.7-2.7,6.6-2.6,9.3,0C69,16.5,83.5,30.9,98,45.4c2.7,2.7,2.7,6.7,0,9.4C83.6,69.2,69.2,83.6,54.8,98
	c-2.7,2.7-6.7,2.7-9.4,0C30.9,83.5,16.5,69,2,54.6c-2.7-2.7-2.7-6.7,0-9.4L45.3,2z"/>
<path class="st1" d="M53.6,37.4c0.2,0.2,0.3,0.3,0.4,0.3c3.2,3.2,6.4,6.4,9.6,9.6c0.3,0.3,0.3,0.5,0.2,0.8c-1.5,4.2,1.1,8.8,5.4,9.9
	s8.7-1.8,9.4-6.2c0.9-5.5-4.2-10.1-9.6-8.6c-0.4,0.1-0.6,0-0.8-0.2c-3.5-3.5-6.9-7-10.4-10.4c-0.2-0.2-0.3-0.4-0.2-0.8
	c0.7-2.8,0.1-5.4-1.9-7.5c-2.1-2.1-4.6-2.7-7.4-2c-0.3,0.1-0.5,0-0.8-0.2c-3.6-3.6-7.2-7.3-10.9-10.9c-0.3-0.3-0.2-0.4,0-0.6
	c2.9-2.9,5.8-5.8,8.7-8.7c2.7-2.7,6.6-2.6,9.3,0C69,16.7,83.5,31,98,45.5c2.7,2.7,2.7,6.7,0,9.4C83.6,69.2,69.2,83.6,54.8,98
	c-2.7,2.7-6.7,2.7-9.4,0C30.9,83.5,16.5,69,2,54.7C-0.7,52-0.7,48,2,45.3c9.8-9.8,19.7-19.6,29.5-29.4c0.3-0.3,0.4-0.3,0.6,0
	c3.6,3.6,7.1,7.2,10.7,10.7c0.2,0.2,0.3,0.4,0.2,0.7c-1.3,3.7,0.3,7.7,3.8,9.4c0.4,0.2,0.5,0.4,0.5,0.8c0,8.8,0,17.6,0,26.3
	c0,0.4-0.1,0.6-0.5,0.7c-3,1.4-4.7,4.7-4.2,7.9c0.5,3.4,3.1,6,6.4,6.5c3.6,0.6,7.2-1.6,8.4-5c1.2-3.5-0.2-7.4-3.5-9.2
	c-0.3-0.1-0.4-0.3-0.4-0.6c0-8.8,0-17.6,0-26.2C53.6,37.7,53.6,37.6,53.6,37.4z"/>
</svg>
