<?xml version="1.0" encoding="utf-8"?>
<!-- Generator: Adobe Illustrator 26.0.3, SVG Export Plug-In . SVG Version: 6.00 Build 0)  -->
<svg version="1.1" id="Слой_1" xmlns="http://www.w3.org/2000/svg" xmlns:xlink="http://www.w3.org/1999/xlink" x="0px" y="0px"
	 viewBox="0 0 89.5 100" style="enable-background:new 0 0 89.5 100;" xml:space="preserve">
<style type="text/css">
	.st0{fill:#E65100;}
	.st1{fill:#FF6D00;}
	.st2{fill:#FFFFFF;}
	.st3{fill:#EEEEEE;}
</style>
<g>
	<path class="st0" d="M89.5,0H0l7.9,89.5L44.7,100l36.8-10.5L89.5,0L89.5,0z"/>
	<path class="st1" d="M44.7,7.9v83.9l29.5-8.4l6.6-75.5C80.8,7.9,44.7,7.9,44.7,7.9z"/>
	<path class="st2" d="M44.7,52.6V42.1h22.6l-1.8,30.3l-20.8,6.8v-11l10.8-3.7l0.8-11.8C56.3,52.6,44.7,52.6,44.7,52.6z M68.2,31.6
		L69,21.1H44.7v10.5H68.2z"/>
	<path class="st3" d="M44.7,68.2v11.1l-20.8-6.8L22.8,58h10.5l0.5,6.6L44.7,68.2z M31.8,31.6h12.9V21.1H20.8l1.8,31.6h22.1V42.1
		H32.6L31.8,31.6z"/>
</g>
</svg>
