<?xml version="1.0" encoding="utf-8"?>
<!-- Generator: Adobe Illustrator 26.0.3, SVG Export Plug-In . SVG Version: 6.00 Build 0)  -->
<svg version="1.1" id="Слой_1" xmlns="http://www.w3.org/2000/svg" xmlns:xlink="http://www.w3.org/1999/xlink" x="0px" y="0px"
	 viewBox="0 0 100 100" style="enable-background:new 0 0 100 100;" xml:space="preserve">
<style type="text/css">
	.st0{fill:#330000;}
	.st1{fill:#FE9900;}
</style>
<g>
	<path class="st0" d="M82.7,100H17.3C7.7,100,0,92.1,0,82.2V17.8C0,7.9,7.7,0,17.3,0h65.4C92.3,0,100,7.9,100,17.8v64.5
		C100,92.1,92.3,100,82.7,100z"/>
	<g>
		<path class="st1" d="M77.2,56.9c0,5.2,0,10.5,0,15.7c0,0.9,0,1-1,1c-2.5,0-5,0-7.5,0c-0.8,0-0.9-0.1-0.9-0.9c0-10.5,0-21.1,0-31.6
			c0-0.7,0.1-0.8,0.8-0.8c2.6,0,5.1,0,7.7,0c0.7,0,0.8,0.1,0.8,0.8C77.2,46.4,77.2,51.7,77.2,56.9z"/>
		<path class="st1" d="M72.6,36.8c-3.2,0-5.2-2.1-5.2-5.4c0-2.9,2.3-5,5.2-5c3.2,0,5.1,2.1,5.1,5.4C77.8,34.3,75.8,37,72.6,36.8z"/>
		<path class="st1" d="M47.3,29.6c0.5,0,0.7,0.2,0.8,0.6c5,14.1,10,28.1,15,42.2c0,0.1,0.1,0.2,0.1,0.2c0.2,0.6,0.1,0.8-0.6,0.8
			c-2.8,0-5.5,0-8.3,0c-0.5,0-0.8-0.2-1-0.7c-1-3.1-2.1-6.1-3.1-9.2c-0.1-0.4-0.3-0.5-0.8-0.5c-4.8,0-9.6,0-14.5,0
			c-0.4,0-0.5,0.1-0.6,0.5c-1,3-1.9,6-2.9,9c-0.3,0.8-0.4,0.9-1.2,0.9c-2.4,0-4.9,0-7.3,0c-0.8,0-0.9-0.2-0.7-0.9c1-2.9,2-5.8,3-8.7
			c3.4-9.7,6.8-19.5,10.2-29.2c0.5-1.4,0.8-2.8,0.8-4.3c0-0.5,0.2-0.6,0.6-0.6C38.7,29.6,45.6,29.6,47.3,29.6z M42.1,37.3
			c-0.1,0.5-0.2,1-0.3,1.5c-1.4,5.2-3,10.3-4.7,15.4c-0.1,0.4-0.1,0.5,0.4,0.5c3.2,0,6.3,0,9.5,0c0.6,0,0.6,0,0.4-0.6
			c-1.4-4.5-2.9-8.9-4.2-13.4C42.8,39.5,42.5,38.4,42.1,37.3C42.2,37.3,42.1,37.3,42.1,37.3z"/>
	</g>
</g>
</svg>
