<?xml version="1.0" encoding="utf-8"?>
<!-- Generator: Adobe Illustrator 26.0.3, SVG Export Plug-In . SVG Version: 6.00 Build 0)  -->
<svg version="1.1" id="Слой_1" xmlns="http://www.w3.org/2000/svg" xmlns:xlink="http://www.w3.org/1999/xlink" x="0px" y="0px"
	 width="100px" height="100px" viewBox="0 0 100 100" style="enable-background:new 0 0 100 100;" xml:space="preserve">
<style type="text/css">
	.st0{fill:#49021F;}
	.st1{fill:#FF3366;}
</style>
<path class="st0" d="M17.7,0h64.6C92.1,0,100,8.1,100,18.2v63.7c0,10-7.9,18.2-17.7,18.2H17.7C7.9,100,0,91.9,0,81.8V18.2
	C0,8.1,7.9,0,17.7,0z"/>
<g id="vlpa">
	<g id="vlpb">
		<path class="st1" d="M36.3,26.2v44c0,0.5-0.2,0.7-0.6,0.7h-8.2c-0.4,0-0.5-0.2-0.5-0.7v-44c0-0.4,0.2-0.6,0.6-0.6h8.1
			c0.2,0,0.5,0.1,0.5,0.4C36.3,26.1,36.3,26.1,36.3,26.2z"/>
		<path class="st1" d="M60.4,71.4c-3.1,0-6.2-0.6-9-1.9c-2.6-1.2-4.8-3.3-6.3-5.8c-1.5-2.6-2.3-5.9-2.3-9.7c0-3.2,0.8-6.3,2.3-9
			c1.6-2.8,3.9-5.1,6.6-6.6c2.9-1.7,6.4-2.5,10.5-2.5c0.2,0,0.5,0,0.9,0c0.4,0,0.8,0,1.3,0.1V22.4c0-0.3,0.1-0.5,0.4-0.5h8.5
			c0.2,0,0.4,0.1,0.4,0.3v0.1V63c0,0.8,0,1.6,0.1,2.6C74,66.5,74,67.3,74,68c0,0.3-0.1,0.6-0.4,0.7c-2.2,0.9-4.5,1.6-6.8,2.1
			C64.8,71.2,62.6,71.4,60.4,71.4L60.4,71.4z M64.5,62.8V44c-0.4-0.1-0.8-0.2-1.1-0.2c-0.5,0-0.9-0.1-1.4-0.1
			c-1.6,0-3.2,0.3-4.7,1.1c-1.4,0.7-2.6,1.8-3.5,3.2s-1.4,3.2-1.4,5.4c0,1.5,0.2,3,0.7,4.4c0.4,1.2,1,2.2,1.9,3
			c0.8,0.8,1.7,1.4,2.8,1.7c1.1,0.4,2.3,0.6,3.5,0.6c0.6,0,1.2,0,1.8-0.1C63.5,63.1,64,63,64.5,62.8L64.5,62.8z"/>
	</g>
</g>
</svg>
