<?xml version="1.0" encoding="utf-8"?>
<!-- Generator: Adobe Illustrator 26.0.3, SVG Export Plug-In . SVG Version: 6.00 Build 0)  -->
<svg version="1.1" id="Слой_1" xmlns="http://www.w3.org/2000/svg" xmlns:xlink="http://www.w3.org/1999/xlink" x="0px" y="0px"
	 viewBox="0 0 100 100" style="enable-background:new 0 0 100 100;" xml:space="preserve">
<style type="text/css">
	.st0{fill:#F6DE1E;}
</style>
<g>
	<path class="st0" d="M50,100c-16.4,0-32.8,0-49.2,0C0.2,100,0,99.9,0,99.2C0,66.4,0,33.6,0,0.7C0,0.1,0.1,0,0.8,0
		c32.8,0,65.5,0,98.4,0c0.6,0,0.8,0.1,0.8,0.7c0,32.9,0,65.7,0,98.6c0,0.7-0.3,0.7-0.8,0.7C82.7,100,66.3,100,50,100z"/>
	<path d="M76.7,45.4c5.3,0.1,9.5,2.2,12.3,6.8c0.4,0.6,0.3,0.8-0.3,1.2c-2,1.2-4,2.5-5.9,3.8c-0.6,0.4-0.8,0.3-1.2-0.3
		c-1.7-2.7-3.9-3.7-6.7-3.2c-1.6,0.3-2.7,1.1-3.2,2.7c-0.5,1.6-0.2,3.1,1,4.3c1,1,2.4,1.6,3.7,2.2c3.3,1.5,6.6,2.8,9.7,4.8
		c6.7,4.3,7,11.8,5,16.6c-1.6,4-4.8,6.2-8.9,7.2c-6.5,1.6-12.6,0.9-18.1-3.2c-1.8-1.3-3.2-3.1-4.4-5.1c-0.3-0.5-0.2-0.7,0.3-1
		c2.1-1.2,4.2-2.4,6.2-3.6c0.6-0.4,0.9-0.4,1.3,0.3c1.4,2.3,3.3,4,6,4.6c2,0.5,3.9,0.5,5.9-0.2c1.7-0.6,3-1.7,3.2-3.6
		c0.3-1.9-0.6-3.4-2.2-4.5c-1.8-1.2-3.9-2-5.9-2.8c-2.9-1.2-5.7-2.5-8.1-4.6c-4-3.6-5.1-8.2-3.9-13.3c1.2-5,4.9-7.7,9.8-8.8
		C73.9,45.4,75.3,45.3,76.7,45.4z"/>
	<path d="M54.4,63c0,4.9,0,9.8,0,14.7c0,1.9-0.2,3.7-0.7,5.5c-1.2,4.3-4,7.1-8.3,8.3c-4.3,1.2-8.6,1-12.6-1
		c-2.8-1.4-4.8-3.6-6.2-6.3c-0.2-0.4-0.3-0.7,0.2-1c2.2-1.3,4.4-2.6,6.5-3.9c0.5-0.3,0.7-0.2,1,0.2c0.4,0.7,0.8,1.3,1.3,2
		c1.6,2.1,4.3,2.9,6.8,1.9c1.6-0.6,2.3-2,2.5-3.6c0.1-0.9,0.2-1.7,0.2-2.6c0-10.1,0-20.2,0-30.3c0-0.9,0.2-1.1,1.1-1.1
		c2.5,0.1,5,0.1,7.5,0c0.7,0,0.9,0.2,0.8,0.9C54.4,52.2,54.4,57.6,54.4,63z"/>
</g>
</svg>
