<?xml version="1.0" encoding="utf-8"?>
<!-- Generator: Adobe Illustrator 26.0.3, SVG Export Plug-In . SVG Version: 6.00 Build 0)  -->
<svg version="1.1" id="Слой_1" xmlns="http://www.w3.org/2000/svg" xmlns:xlink="http://www.w3.org/1999/xlink" x="0px" y="0px"
	 width="100px" height="100px" viewBox="0 0 100 100" style="enable-background:new 0 0 100 100;" xml:space="preserve">
<style type="text/css">
	.st0{fill:#80DDFE;}
	.st1{fill:#1867CE;}
	.st2{fill:#FFFFFF;}
	.st3{fill:#C63807;}
</style>
<circle class="st0" cx="50" cy="50" r="50"/>
<path class="st1" d="M20.5,9.6c0,0,9.3-5.3,12.6-6.6c2.8-1.1,9.8-2.6,11.8-1.5c2,1,3.9,3.3,3,9.4s-1.2,8.2-1.2,8.2s-0.3,3.8,1.4,4.1
	c1.6,0.3,3.2-0.3,5.9-2.7s6.3-7.2,6.3-7.2s3.2-5.9,5.9-6.8c3-1,9.2-0.4,10.9,6.8S66.7,38.8,66.7,38.8S58.4,51,56,55.3
	c-1,1.8-2.5,5.5-0.5,8.1c2,2.6,5.1,3.1,8.6,2.6c3.5-0.5,7.3,0.5,9.1,5.7s2.9,11.9,2.7,14.4c-0.4,4.4-5.3,9.8-8.2,10.8
	c-11.4,3.9-16.6,3.1-24,2.9c-2.5-0.1-7.4-3-7.2-5.4c0.2-2.4,2.2-4.5,5.7-6.7s6.9-5.5,7.7-7.4c0.8-1.9,0.9-4.8-1.6-7.4
	s-6.4-2.6-9-4.3s-6.6-6.2-9.8-6s-9.3-2.4-11.2-3.8c-1.8-1.4-5.2-2.6-4.9-5.5s4.6-4.1,6.8-2.9c2.2,1.2,2.4,3.1,4.4,4.5
	s2.3-5.1,2.8-8.6c0.6-4.7,7.9-3.2,13.9-7c1.8-1.1,4.9-3.5,2.9-9.2c-2-5.7-7.9-5.3-10.5-4.3c-2,0.8-4.5,3.5-6.1,4.6
	c-1,0.7-3.7,2.1-4.7,0.5c-1-1.5-1.9-6.2,1.4-8.8s3-5.2,7.3-4.3c4.2,0.9,7.3,1.7,7.3,1.7s3.4,0.9,3.5-0.5c0.2-1.4-0.8-3.4-2.4-4.8
	c-1.5-1.4-6-3.5-9.6-3.5c-3,0-5,1.1-6.7,1.9C20.8,14.2,19.4,10.3,20.5,9.6z"/>
<path class="st1" d="M0.4,56.9C0.4,56.2,1,55.7,1.7,56c3.1,1.2,9.4,5.6,10.8,7.5c1.9,2.4,7.8,8,10,15.7c2.3,7.9,5.6,16,2.6,14.2
	C18.5,89.4,2.5,76.1,0.4,56.9z"/>
<circle class="st2" cx="75.4" cy="14.3" r="8.6"/>
<g>
	<g>
		<path class="st3" d="M75.4,0c-7.9,0-14.3,6.4-14.3,14.3c0,2.4,0.6,4.7,1.7,6.8l11.8,21.4c0.2,0.3,0.5,0.5,0.8,0.5
			c0.3,0,0.6-0.2,0.8-0.5L88,21.1c1.1-2.1,1.7-4.4,1.7-6.8C89.7,6.4,83.3,0,75.4,0z M75.4,21.5c-4,0-7.2-3.2-7.2-7.2
			s3.2-7.2,7.2-7.2s7.2,3.2,7.2,7.2S79.4,21.5,75.4,21.5z"/>
	</g>
</g>
</svg>
