<?xml version="1.0" encoding="utf-8"?>
<!-- Generator: Adobe Illustrator 26.0.3, SVG Export Plug-In . SVG Version: 6.00 Build 0)  -->
<svg version="1.1" id="Слой_1" xmlns="http://www.w3.org/2000/svg" xmlns:xlink="http://www.w3.org/1999/xlink" x="0px" y="0px"
	 width="117.1px" height="100px" viewBox="0 0 117.1 100" style="enable-background:new 0 0 117.1 100;" xml:space="preserve">
<style type="text/css">
	.st0{fill:#201F1F;}
	.st1{fill:#9BD9EF;}
	.st2{fill:#7CB9E5;}
	.st3{fill:#9CD9EF;}
	.st4{fill:#030303;}
	.st5{fill:#F3C9B0;}
	.st6{fill:#C39A85;}
	.st7{fill:#FEFEFE;}
	.st8{fill:#FCFCFC;}
	.st9{fill:#99D5EB;}
	.st10{fill:#98D4E9;}
	.st11{fill:#99D6EB;}
	.st12{fill:#98D4EA;}
	.st13{fill:#97D3E8;}
	.st14{fill:#95CFE4;}
	.st15{fill:#AC5C51;}
	.st16{fill:#AB5C51;}
	.st17{fill:#FDFCFC;}
	.st18{fill:#FDFBFB;}
</style>
<g>
	<path class="st0" d="M48.9,56.9c-1.5-0.3-3-0.5-4.5-0.8c-3.9-0.8-7.7-1.9-11.1-4c-2.9-1.8-5.2-4.1-6.9-7c-0.2-0.4-0.5-0.5-0.9-0.5
		C17.2,45,8.9,46,0.8,48.2c-0.2,0-0.5,0.3-0.6-0.1c-0.1-0.4,0.3-0.3,0.5-0.3c5-1.4,10.2-2.3,15.4-2.8c3-0.3,6.1-0.6,9.1-0.7
		c0.7,0,0.6-0.2,0.4-0.8c-0.3-1.2-1-1.5-2.2-1.5c-7.6-0.1-15.1,0.2-22.5,1.6c-0.3,0.1-0.8,0.4-0.9,0c-0.1-0.4,0.5-0.3,0.8-0.4
		c7.4-1.4,14.9-1.8,22.5-1.6c0.5,0,1,0,1.5,0c-0.4-1.4-0.9-2.8-1.1-4.3c-0.7-4.9-1.1-9.7,0.4-14.6c0.9-2.8,2.3-5.2,4.2-7.4
		c0.4-0.4,0.5-0.7,0.3-1.3c-1.5-4.6-1-9.1,0.7-13.5C29.4,0,29.7,0,30.1,0c1.9-0.1,3.7,0.4,5.4,1c3,1.1,5.8,2.6,8.4,4.4
		c0.4,0.3,0.7,0.3,1.2,0.2c8.3-2.1,16.6-2.2,25-0.3c0.5,0.1,0.9,0,1.4-0.3c3.1-2,6.3-3.8,9.9-4.7C82.5,0.1,83.7,0,84.9,0
		c0.4,0,0.7,0.2,0.9,0.6c1.5,4.1,2,8.3,0.9,12.6c-0.1,0.4,0,0.7,0.3,0.9c4.1,4.4,6.1,9.6,6,15.5c0,4-0.2,8-1.3,11.9
		c0.7,0,1.3,0,1.9,0c7.6-0.2,15.2,0.2,22.8,1.6c0.1,0,0.2,0,0.2,0c0.2,0.1,0.6-0.1,0.6,0.3c-0.1,0.4-0.4,0.1-0.7,0.1
		c-7.9-1.5-16-1.9-24-1.6c-0.8,0-1.1,0.3-1.3,1c-0.3,1.2-0.4,1.2,0.9,1.2c8.2,0.3,16.3,1.3,24.3,3.5c0.2,0,0.3,0.1,0.4,0.1
		c0.1,0,0.2,0.1,0.2,0.2c0,0.1-0.1,0.3-0.3,0.2c-0.3-0.1-0.7-0.2-1-0.2c-5.3-1.4-10.7-2.3-16.1-2.8c-2.8-0.3-5.6-0.4-8.4-0.6
		c-0.3,0-0.6-0.1-0.8,0.3c-2.3,5-6.3,7.9-11.3,9.6c-3.4,1.2-6.8,1.8-10.4,2.2c-0.2,0-0.4,0-0.5,0.1c-0.3,0.3-0.7,0.3-1,0.3
		c-5.5,0-11,0-16.5,0C50.1,57.2,49.5,57.2,48.9,56.9z"/>
	<path class="st0" d="M44.7,63.5c0.5-1.5,1-3.1,2-4.4c0.1-0.1,0.2-0.2,0.2-0.3c1.4-0.8,3-0.8,4.5-1c2-0.2,4-0.1,5.9-0.2
		c2.2-0.1,4.4,0,6.5,0.2c2.5,0.3,4.8,1.1,6.5,3c0.7,0.7,1.1,1.7,1.7,2.5c0.4,1.2,0.4,2.5,0.4,3.8c0,3.3,0,6.7,0,10
		c0,0.3,0,0.6,0,0.9c0.3,0.2,0.2,0.6,0.2,0.9c0,0.7,0,1.4,0,2.1c0.1,1.8,0.9,3.3,2.5,4.2c0.4,0.2,0.8,0.4,1.1,0.7
		c0.6,0.5,0.7,1.1,0.2,1.8C75.9,88.3,74.9,88,74,88c-1.1-0.1-2.2-0.3-3.2-0.8c-2.6-1.1-3.9-3.1-3.9-5.9c0-1.4,0-2.7,0-4.1
		c0-2.4,0-4.7,0-7.1c0-1.2-0.2-2.4-0.6-3.5c-0.1-0.3-0.2-0.7-0.6-1c-0.1,3.9,0,7.7,0,11.5c0,2.7,0,5.4,0,8.1c0,1.8,0.4,3.4,2,4.4
		c0.8,1.2,0.5,1.9-0.8,2.5c-0.2,0.1-0.4,0.1-0.6,0.1c-1.9-0.2-3.5-1-5-2.1c-1.4-1.3-2.1-2.8-2-4.8c0-6.7,0.1-13.4,0-20.1
		c0-0.4,0-0.8,0-1.2c-0.4-0.7-0.6-0.7-1-0.1c-0.1,0.4,0,0.7,0,1.1c0,6.7,0,13.5,0,20.2c0,1.9-0.7,3.5-2,4.8
		c-1.7,1.3-3.5,2.2-5.7,2.1c-0.1,0-0.2,0-0.3-0.1c-1.1-0.7-1.2-1.3-0.3-2.5c1.5-0.9,1.9-2.4,1.9-4.1c0-2.8,0-5.6,0-8.4
		c0-3.9,0-7.7,0-11.7c-0.4,0.2-0.5,0.5-0.6,0.8c-0.4,1.1-0.6,2.3-0.6,3.5c0,2.5,0,4.9,0,7.4c0,1.4,0,2.8,0,4.2
		c-0.1,2.7-1.4,4.7-3.9,5.8c-1.8,0.7-3.6,0.9-5.5,0.8c-0.5-0.1-0.9-0.4-1-1c-0.1-0.6,0.3-1,0.8-1.3c0.4-0.2,0.9-0.4,1.3-0.7
		c1.5-0.9,2.2-2.1,2.2-3.9c0-0.7,0-1.5,0-2.2c0-0.3,0-0.6,0.2-0.9c0.1-2.7,0.1-5.4,0-8.1c-0.1-2-0.2-4,0.1-6.1
		C44.6,63.7,44.7,63.6,44.7,63.5z"/>
	<path class="st1" d="M76.7,87.4c0.3-0.7,0.1-1.3-0.7-1.7c-2.5-1.1-3.5-3.1-3.4-5.8c0-0.7,0-1.3,0-2c4.9,0.8,9.8,2,14.3,4.4
		c1.5,0.8,2.9,1.8,3.9,3.2c1.6,2.1,1.4,4.4-0.4,6.4c-1.7,1.9-4,3-6.3,4c-3.6,1.5-7.4,2.4-11.2,3c-0.1,0-0.2,0-0.3,0
		c-0.2-0.2-0.2-0.5-0.2-0.8c0-1.7,0-3.5,0-5.2c0.1-2.1,1.5-4.1,3.5-4.9C76.3,87.8,76.5,87.7,76.7,87.4z"/>
	<path class="st1" d="M44.4,78.1c0.1,1.2,0.1,2.4,0,3.6c-0.2,1.8-1.2,3-2.8,3.7c-0.3,0.1-0.6,0.2-0.8,0.4C40.3,86.1,40,86.4,40,87
		c0,0.5,0.4,0.7,0.8,0.8c2.4,0.8,3.8,2.8,3.8,5.3c0,1.6,0,3.1,0,4.7c0,0.3,0.1,0.7-0.2,1c-5.2-0.9-10.3-2.2-14.8-5.1
		c-1-0.6-1.9-1.4-2.5-2.4c-1.5-2.1-1.3-4.3,0.5-6.3c1.7-1.8,3.7-2.9,5.9-3.8C37,79.6,40.7,78.7,44.4,78.1z"/>
	<path class="st0" d="M44.1,69.9c-6.3,1.4-12.5,0.3-16-6.1c-0.5-0.8-0.9-1.6-1.4-2.4c-1.1-1.8-2.5-3.1-4.4-4
		c-0.7-0.3-1.3-0.7-1.8-1.2c-0.6-0.6-0.4-1.1,0.3-1.4c1.3-0.5,2.5-0.3,3.8,0.1c2.4,0.8,4.1,2.4,5.5,4.4c0.7,1.1,1.5,2.3,2.5,3.2
		c3.1,2.8,6.6,3,10.4,1.7c0.5-0.2,1-0.4,1.5-0.6c0.3,0.3,0.1,0.6-0.1,0.9c-1,0.6-1,0.6-0.2,1.3c0,0,0,0.1,0.1,0.1
		c0.1,1.1,0,2.2,0.1,3.3C44.3,69.6,44.3,69.8,44.1,69.9z"/>
	<path class="st2" d="M76.7,87.4c-0.1,0.4-0.5,0.6-0.9,0.8c-2.1,0.9-3,2.6-3.1,4.8c-0.1,1.9,0,3.9,0,5.9c-1.8,0.3-3.5,0.6-5.3,0.7
		c-0.6,0.1-0.5-0.4-0.6-0.8c0-1.2,0-2.4,0-3.6c0-1.1,0.1-2.1-0.1-3.2c1.2-0.5,1.4-1,0.8-2.1c0.7-1.4,2-2.2,3.3-2.8
		c1.4,0.5,2.9,0.8,4.4,0.8C75.7,87.8,76.2,87.7,76.7,87.4z"/>
	<path class="st2" d="M44.4,98.7c0-1.9,0-3.8,0-5.7c0-2.3-1.2-4-3.3-4.9c-0.1-0.1-0.3-0.1-0.3-0.3c1.9,0.1,3.7-0.1,5.5-0.8
		c1.4,0.6,2.7,1.4,3.4,2.8c-0.6,1.1-0.6,1.6,0.4,2.2c0.2,0.3,0.2,0.6,0.2,1c0,1.9,0,3.7,0,5.6c0,0.3,0,0.7-0.3,0.9
		C48.2,99.4,46.3,99.2,44.4,98.7z"/>
	<path class="st1" d="M55.7,90.1c1.6-1.5,2.1-3.3,2.1-5.4c0-6.7,0-13.4,0-20.1c0-0.3-0.1-0.6,0.1-0.9c0.4,0.4,0.3,0.8,0.3,1.3
		c0,3.5,0,7,0,10.5c0,0.3-0.2,0.9,0.3,1c0.6,0,0.4-0.6,0.4-1c0-3.5,0-6.9,0-10.4c0-0.4-0.1-0.9,0.3-1.2c0.2,0.3,0.1,0.6,0.1,0.9
		c0,6.7,0,13.4-0.1,20c0,2.1,0.5,3.9,2.1,5.3c0.1,0.4-0.1,0.6-0.3,0.9c-0.9,1.5-1.3,3.1-1.4,4.8c0,1.1,0,2.1,0,3.2
		c0,0.3,0,0.7-0.2,1c-1.4-0.1-2.7,0.2-4.1-0.1c0.4-0.4,0.9-0.2,1.4-0.2c0.5,0,0.8-0.2,0.7-0.7c-0.2-1.8,0-3.6-0.4-5.3
		c-0.2-0.9-0.6-1.8-1.1-2.6C55.9,90.7,55.6,90.5,55.7,90.1z"/>
	<path class="st2" d="M59.5,100c0.1-2.1-0.2-4.3,0.3-6.4c0.3-1.3,0.9-2.3,1.6-3.4c1.4,1,3,1.7,4.7,1.9c0.1,0.2,0.1,0.4,0,0.6
		c-0.6,1.9-0.6,3.9-0.6,5.9c0,0.4,0.1,0.8-0.2,1.2C63.4,99.9,61.4,100,59.5,100z"/>
	<path class="st2" d="M55.7,90.1c1.3,1.7,1.9,3.6,1.9,5.7c0,1.1,0.1,2.2,0.1,3.3c0,0.5-0.1,0.7-0.7,0.7c-0.6,0-1.1,0-1.7,0
		c-1.2,0-2.4,0-3.6-0.2c-0.3-0.3-0.2-0.7-0.2-1.1c0-1.3,0.1-2.6-0.1-3.9c-0.1-1-0.3-2-1.2-2.6C52.3,92.1,54.1,91.3,55.7,90.1z"/>
	<path d="M72.2,63.3c-0.2,0.5-0.3,0.1-0.3,0c-0.7-1.3-1.5-2.5-2.7-3.3c-1.6-1.1-3.4-1.6-5.2-1.9c-1.4-0.2-2.8-0.3-4.2-0.2
		c-2.4,0.1-4.8,0-7.2,0.2c-1.4,0.1-2.7,0.3-4.1,0.5c-0.5,0.1-0.9,0.5-1.4,0.3c0.5-0.8,1.2-1.4,2-1.9c0.5-0.3,1,0,1.4,0
		c5.9,0,11.8,0,17.7,0C70.3,58.6,71.7,60.7,72.2,63.3z"/>
	<path class="st1" d="M65.3,99.7c0-2-0.2-4,0.3-6c0.1-0.5,0.3-1.1,0.5-1.6c0.2,0,0.4,0,0.6,0c0.5,0.1,0.3,0.5,0.3,0.7c0,2,0,4,0,6.1
		c0,0.3-0.1,0.7,0.3,0.8C66.7,99.8,66,99.6,65.3,99.7z"/>
	<path class="st1" d="M50.2,92c0.9,0.1,1.1,0.7,1.3,1.4c0.4,1.8,0.2,3.6,0.3,5.3c0,0.3,0,0.6,0,0.9c-0.6-0.1-1.2-0.1-1.7-0.2
		c0-2.5,0-5,0-7.5C50.1,92,50.2,92,50.2,92z"/>
	<path class="st3" d="M21.5,57.4c0.3,1,0.6,2.1,0.8,3.1c0.1,0.5,0,0.9-0.3,1.3c-0.3,0.3-0.7,0.2-1,0.1c-0.5-0.3-0.6-0.7-0.5-1.2
		c0.3-1.1,0.6-2.2,0.9-3.3C21.4,57.4,21.5,57.4,21.5,57.4z"/>
	<path class="st4" d="M44.3,64.7c0.1-0.3,0.1-0.7,0.2-1c0-0.2,0.2-0.1,0.3-0.1c-0.2,1.9-0.1,3.9-0.2,5.8c0,0.2-0.1,0.4-0.1,0.6
		c-0.1,0-0.2,0-0.3,0c0-1.4,0-2.7,0-4.1C43.8,65.4,43.9,65,44.3,64.7z"/>
	<path class="st5" d="M84.4,37.7c0.1,3-0.2,5.9-1.4,8.6c-1.9,4.1-5.4,6-9.6,7c-3.3,0.8-6.6,0.9-9.9,1c-5.6,0.1-11.1,0.2-16.6-0.7
		c-2.7-0.4-5.4-1.2-7.9-2.5c-4-2.2-6.1-5.6-6.7-10c-0.2-1.1-0.2-2.2-0.2-3.3c0.3-3.5,2.2-6.2,4.9-8.3c1.8-1.5,4-1.9,6.2-2.1
		c2.9-0.1,5.8,0.1,8.7,0.4c3.7,0.3,7.4,0.5,11.2,0.1c3.4-0.3,6.9-0.7,10.3-0.5c2.8,0.1,5.2,0.9,7.2,2.9
		C82.6,32.4,84.1,34.8,84.4,37.7z"/>
	<path class="st6" d="M84.4,37.7c-0.4-1.7-1-3.3-2-4.8c-1.7-2.5-3.9-4.5-7.1-5c-2.3-0.4-4.6-0.3-6.8-0.1c-1.4,0.1-2.7,0.3-4.1,0.3
		c-2.4,0.1-4.7,0.4-7.1,0.3c-2.6-0.1-5.1-0.3-7.7-0.5c-3-0.2-5.9-0.5-8.9,0.1c-2.7,0.5-4.6,2.2-6.2,4.3c-1.3,1.7-2.1,3.5-2.5,5.6
		c0-2.6,1.1-4.7,2.6-6.7c2.4-3.2,5.6-4.5,9.5-4.6c3.3,0,6.7,0.3,10,0.4c2.9,0.1,5.7,0.1,8.6,0c3.5-0.2,7.1-0.6,10.6-0.4
		c5.1,0.3,9.9,4.5,10.9,9.6C84.3,36.7,84.4,37.2,84.4,37.7z"/>
	<path class="st1" d="M49.7,89.8c-0.7-0.5-1.1-1.3-1.8-1.8c-0.5-0.3-1.2-0.5-1.6-1c2.8-1.2,3.9-3.4,3.8-6.4c0-1.1,0-2.2,0-3.3
		c0.5-0.3,1.1-0.5,1.7-0.2c0,3.1,0,6.2,0,9.3C51.8,88,51.1,89.1,49.7,89.8z"/>
	<path class="st1" d="M70.8,87c-0.2,0.6-0.9,0.6-1.3,0.9c-0.8,0.5-1.3,1.3-2,1.9c-1.6-0.9-2.1-2.4-2.1-4.1c-0.1-2.9,0-5.8,0-8.6
		c0.6-0.3,1.2-0.3,1.7,0.1c0,1.4,0,2.8,0,4.1C67.1,84.1,68.4,85.9,70.8,87z"/>
	<path class="st7" d="M51.8,77.1c-0.6,0.1-1.1,0.1-1.7,0.2c0-3.1-0.2-6.2,0.1-9.4c0.1-0.8,0.3-1.5,0.7-2.2c0.2-0.4,0.4-0.7,0.9-1
		C51.8,68.9,51.8,73,51.8,77.1z"/>
	<path class="st7" d="M67,77.3c-0.5-0.2-1.1-0.1-1.7-0.1c0-4,0-8.1,0-12.2c0.4,0.1,0.6,0.5,0.8,0.8c0.6,1.1,0.9,2.4,0.9,3.6
		C67,72,67,74.6,67,77.3z"/>
	<path class="st8" d="M59.2,63.8c0,4.1,0,8.2,0,12.2c0,0.4,0.1,0.7-0.6,0.8c-0.6,0.1-0.7-0.1-0.7-0.7c0-4.2,0-8.3,0-12.5
		C58.4,63.1,58.8,63.2,59.2,63.8z"/>
	<path class="st9" d="M30.9,61.9c0.6,0,1.2,0.6,1.2,1.1c0,0.4-0.2,0.6-0.6,0.5c-0.6-0.1-0.9-0.5-1-1.1
		C30.4,62.1,30.6,61.9,30.9,61.9z"/>
	<path class="st10" d="M33.8,65.7c-0.5-0.1-0.9-0.4-0.9-0.9c0-0.5,0.4-0.5,0.8-0.5c0.5,0.1,1,0.4,1,1C34.6,65.7,34.3,65.7,33.8,65.7
		z"/>
	<path class="st11" d="M36.9,65.4c0.5,0,1,0.2,1,0.7c0,0.5-0.4,0.6-0.9,0.6c-0.5,0-0.9-0.2-1-0.7C36.1,65.4,36.5,65.4,36.9,65.4z"/>
	<path class="st11" d="M40.6,65.4c0.5,0,1,0.1,1,0.6c0,0.6-0.5,0.7-1,0.7c-0.4,0-0.9-0.1-0.9-0.6C39.7,65.5,40.2,65.5,40.6,65.4z"/>
	<path class="st12" d="M28.9,59.3c0.4,0,1,0.6,0.9,1.1c0,0.3-0.2,0.5-0.5,0.5c-0.5,0-0.9-0.6-0.9-1.1C28.4,59.5,28.5,59.3,28.9,59.3
		z"/>
	<path class="st13" d="M27,57.1c0.5,0.1,0.8,0.4,0.8,0.9c0,0.3-0.2,0.4-0.5,0.4c-0.5,0-0.8-0.3-0.9-0.8C26.4,57.3,26.6,57.2,27,57.1
		z"/>
	<path class="st13" d="M44.3,64.7c0,0.4-0.1,0.8-0.1,1.2c-0.5,0-1,0-0.9-0.6C43.2,64.6,43.7,64.5,44.3,64.7z"/>
	<path class="st14" d="M25.8,56.4c0,0.3-0.2,0.4-0.5,0.4c-0.4,0-0.7-0.2-0.7-0.6c-0.1-0.3,0.2-0.4,0.5-0.4
		C25.4,55.8,25.7,56,25.8,56.4z"/>
	<path class="st7" d="M78.8,39.4c-0.1,2.2-0.6,4.4-2.4,6.1c-2.1,2.1-4.9,1.8-6.7-0.5c-2.5-3.2-2.5-9,0.2-12.1c2-2.4,5-2.4,7.1,0.4
		C78.3,35,78.7,37,78.8,39.4z"/>
	<path class="st7" d="M49.5,39c0,2.2-0.4,4.1-1.7,5.8c-2.2,2.9-5.2,2.9-7.4,0c-2.5-3.3-2.3-9.5,0.7-12.3c2.1-2,4.7-1.6,6.4,0.5
		C49,34.7,49.5,36.8,49.5,39z"/>
	<path class="st15" d="M58.3,51.7c-1.4,0-2.6-0.8-3.1-2c-0.1-0.3-0.2-0.6,0.1-0.7c0.4-0.2,0.5,0.1,0.7,0.3c0.9,2.1,3.7,2,4.6,0
		c0.1-0.3,0.3-0.5,0.7-0.3c0.3,0.2,0.2,0.5,0.1,0.8C60.9,50.9,59.7,51.7,58.3,51.7z"/>
	<path class="st15" d="M58.3,47.4c-0.7,0-1.3-0.6-1.3-1.3c0-0.8,0.6-1.4,1.3-1.4c0.7,0,1.4,0.7,1.3,1.4C59.6,46.8,59,47.4,58.3,47.4
		z"/>
	<path class="st16" d="M69.1,39c0-1.6,0.4-3,1.5-4.1c1.3-1.3,3.1-1.3,4.3,0.1c1.9,2.1,1.9,6.1,0.1,8.2c-1.4,1.6-3.4,1.6-4.7-0.1
		C69.4,41.9,69.1,40.5,69.1,39z"/>
	<path class="st16" d="M40.9,39.1c0-1.6,0.4-3,1.4-4.2c1.3-1.4,3.1-1.4,4.4,0c1.9,2,1.9,6.2,0.1,8.2c-1.4,1.6-3.3,1.6-4.6-0.1
		C41.3,42,40.9,40.6,40.9,39.1z"/>
	<path class="st17" d="M72.5,36.8c-0.1,0.5-0.4,0.9-1,0.9c-0.6,0-0.9-0.4-0.9-1c0-0.6,0.4-0.9,0.9-0.9
		C72.2,35.9,72.5,36.2,72.5,36.8z"/>
	<path class="st18" d="M43.1,37.8c-0.5,0-1.1-0.5-1.1-1c0-0.6,0.4-1,1-1.1c0.6,0,1.1,0.4,1.1,1C44.1,37.3,43.6,37.8,43.1,37.8z"/>
</g>
</svg>
