<?xml version="1.0" encoding="utf-8"?>
<!-- Generator: Adobe Illustrator 26.0.3, SVG Export Plug-In . SVG Version: 6.00 Build 0)  -->
<svg version="1.1" id="Слой_1" xmlns="http://www.w3.org/2000/svg" xmlns:xlink="http://www.w3.org/1999/xlink" x="0px" y="0px"
	 viewBox="0 0 100 100" style="enable-background:new 0 0 100 100;" xml:space="preserve">
<style type="text/css">
	.st0{fill:#001E36;}
	.st1{fill:#31A7FE;}
</style>
<g>
	<path class="st0" d="M82.7,100H17.3C7.7,100,0,92.1,0,82.2V17.8C0,7.9,7.7,0,17.3,0h65.4C92.3,0,100,7.9,100,17.8v64.5
		C100,92.1,92.3,100,82.7,100z"/>
	<g>
		<path class="st1" d="M78.3,46.4c0,0.8-0.4,1-1.1,0.7c-1-0.5-2-0.9-3-1.2c-2-0.5-3.9-0.8-6-0.8c-0.7,0-1.5,0.1-2.2,0.3
			c-1.5,0.5-2,2.1-0.9,3.3c0.4,0.4,0.9,0.7,1.3,1c1.6,0.9,3.3,1.5,5,2.2c1.8,0.8,3.5,1.7,5.1,2.9c2.5,2,3.5,4.6,3.4,7.7
			c-0.2,4.6-2.9,8-7.4,9.5c-2.9,0.9-5.8,1.1-8.8,0.8c-2-0.1-4-0.5-5.9-1.1c-0.5-0.2-1-0.4-1.5-0.6c-0.4-0.2-0.6-0.5-0.6-0.9l0-7.2
			c0-0.7,0.2-0.7,0.7-0.4c3.2,1.8,6.5,2.6,10.1,2.6c1,0,1.9-0.1,2.9-0.5c1.6-0.6,1.9-2.3,0.6-3.5c-0.8-0.8-1.8-1.1-2.8-1.6
			c-1.9-0.8-3.9-1.5-5.7-2.6c-1.8-1.1-3.4-2.4-4.6-4.3c-1.9-3.1-1.6-7.8,0.7-10.7c1.8-2.4,4.3-3.8,7.2-4.3c3.8-0.7,7.6-0.5,11.4,0.5
			c0.4,0.1,0.8,0.3,1.2,0.4c0.5,0.2,0.7,0.5,0.7,1.1C78.3,39.9,78.3,45.4,78.3,46.4z"/>
		<path class="st1" d="M19.9,28.1c0-0.9,0-0.9,0.9-0.9c4.5-0.1,9-0.3,13.5-0.2c3.3,0.1,6.5,0.6,9.5,2.2c4.2,2.2,6.7,5.8,7.4,10.6
			c0.5,3.3,0.2,6.6-1.3,9.7c-1.8,3.7-4.8,6.1-8.6,7.3c-3,1-6.1,1.2-9.2,1.1c-0.9,0-1.8,0-2.6-0.1c-0.4,0-0.5,0.1-0.5,0.5l0,12.9
			c0,0.8-0.1,0.9-0.9,0.9c0,0-7.3,0-7.3,0c-0.8,0-0.9-0.1-0.9-0.9L19.9,28.1z M29,49.3c0,0.2-0.1,0.4,0.3,0.5
			c2.7,0.1,5.3,0.2,7.9-0.6c2.9-0.9,4.8-2.6,5.1-5.9c0.1-1.9-0.1-3.7-1.3-5.2c-1.3-1.7-3.2-2.3-5.2-2.6c-2.1-0.3-4.2-0.1-6.3-0.1
			c-0.3,0-0.4,0.2-0.4,0.5L29,49.3z"/>
	</g>
</g>
</svg>
