<?xml version="1.0" encoding="utf-8"?>
<!-- Generator: Adobe Illustrator 26.0.3, SVG Export Plug-In . SVG Version: 6.00 Build 0)  -->
<svg version="1.1" id="Слой_1" xmlns="http://www.w3.org/2000/svg" xmlns:xlink="http://www.w3.org/1999/xlink" x="0px" y="0px"
	 viewBox="0 0 133.3 100" style="enable-background:new 0 0 133.3 100;" xml:space="preserve">
<style type="text/css">
	.st0{fill:#CF649A;}
</style>
<path class="st0" d="M114.7,57.4c-4.7,0-8.7,1.2-12.1,2.8c-1.2-2.5-2.5-4.7-2.7-6.3c-0.3-1.9-0.5-3.1-0.3-5.2
	c0.3-2.1,1.6-5.5,1.6-5.7c0-0.2-0.3-1.3-2.9-1.5c-2.7,0-5.1,0.5-5.2,1.2c-0.3,0.7-0.8,2.3-1.1,4c-0.5,2.4-5.3,11.1-8.1,15.7
	C83,60.8,82.2,59.2,82,58c-0.3-1.9-0.5-3.1-0.3-5.2c0.3-2.3,1.6-5.5,1.6-5.7s-0.3-1.3-2.9-1.5c-2.7,0-5.1,0.5-5.2,1.2
	c-0.3,0.7-0.5,2.4-1.1,4c-0.5,1.6-7.1,16.1-8.8,19.9c-0.8,1.9-1.6,3.5-2.1,4.5c-0.5,1.1,0,0.1-0.1,0.1c-0.5,0.9-0.7,1.3-0.7,1.3l0,0
	C62,77.3,61.6,78,61.5,78s-0.4-1.7,0-4.1c0.9-5.1,3.3-12.8,3.3-13.2c0-0.1,0.4-1.5-1.5-2.3c-1.9-0.7-2.5,0.5-2.8,0.5
	s-0.3,0.4-0.3,0.4s2.1-8.8-4-8.8c-3.9,0-9.2,4.1-11.7,8c-1.7,0.9-5.2,2.8-8.9,4.9c-1.5,0.8-2.9,1.6-4.3,2.4L31,65.5
	c-7.5-8-21.2-13.6-20.7-24.3c0.3-3.9,1.6-14.1,26.4-26.5c20.4-10.1,36.7-7.3,39.6-1.2c4,8.8-8.7,25.3-29.9,27.7
	c-8,1-12.1-2.2-13.2-3.2c-1.1-1.2-1.3-1.3-1.7-1.1c-0.7,0.4-0.3,1.5,0,2.1c0.7,1.6,3.2,4.5,7.6,6c3.9,1.3,13.3,2,24.8-2.4
	c12.8-4.9,22.8-18.8,19.9-30.3C80.4,0.5,61-3.4,42.5,3.2c-10.9,3.9-22.8,10-31.3,18C1.1,30.6-0.5,38.9,0.1,42.4
	c2.4,12.3,19.3,20.3,26,26.1c-0.4,0.1-0.7,0.4-0.9,0.5c-3.5,1.7-16.4,8.4-19.6,15.6c-3.6,8,0.5,13.9,3.3,14.7
	c8.7,2.4,17.6-1.9,22.4-9.1s4.3-16.4,2-20.7l-0.1-0.1l2.7-1.6c1.7-1.1,3.5-2,4.9-2.8c-0.8,2.3-1.5,4.9-1.7,8.8
	c-0.4,4.5,1.5,10.5,4,12.8c1.1,1.1,2.4,1.1,3.2,1.1c2.8,0,4.1-2.4,5.6-5.2c1.7-3.5,3.3-7.5,3.3-7.5s-1.8,11,3.5,11
	c2,0,3.9-2.5,4.8-3.9l0,0c0,0,0-0.1,0.1-0.3c0.3-0.3,0.3-0.5,0.3-0.5l0,0c0.8-1.3,2.5-4.4,5.1-9.6c3.3-6.7,6.5-14.9,6.5-14.9
	s0.3,2,1.3,5.3c0.5,2,1.9,4.1,2.8,6.3c-0.8,1.1-1.2,1.7-1.2,1.7l0,0c-0.7,0.8-1.3,1.7-2,2.7c-2.7,3.2-5.9,6.8-6.3,7.9
	c-0.5,1.2-0.4,2.1,0.5,2.8c0.7,0.5,2,0.7,3.3,0.5c2.4-0.1,4-0.8,4.9-1.1c1.3-0.5,2.8-1.2,4.3-2.3c2.7-1.9,4.1-4.7,4-8.3
	c-0.1-2-0.7-4-1.6-5.9c0.3-0.4,0.5-0.7,0.7-1.1c4.1-6,7.3-12.7,7.3-12.7s0.3,2,1.3,5.3c0.5,1.7,1.5,3.6,2.4,5.3
	c-3.9,3.2-6.3,6.8-7.1,9.2c-1.6,4.4-0.4,6.4,1.9,6.9c1.1,0.3,2.5-0.3,3.6-0.7c1.3-0.4,2.9-1.2,4.5-2.3c2.7-1.9,5.1-4.7,4.9-8.3
	c-0.1-1.7-0.5-3.3-1.1-4.9c3.3-1.3,7.5-2.1,12.9-1.5c11.6,1.3,13.9,8.5,13.5,11.6c-0.4,3.1-2.8,4.7-3.7,5.2
	c-0.8,0.5-1.1,0.7-0.9,1.1c0.1,0.5,0.5,0.5,1.2,0.4c0.9-0.1,6.1-2.5,6.3-8C133.8,65.2,127,57.3,114.7,57.4L114.7,57.4z M25.2,87.6
	c-3.9,4.1-9.2,5.7-11.5,4.4c-2.5-1.5-1.5-7.6,3.2-12c2.8-2.7,6.5-5.2,9.1-6.8c0.5-0.4,1.3-0.8,2.4-1.5c0.1-0.1,0.3-0.1,0.3-0.1
	c0.1-0.1,0.4-0.3,0.5-0.4C30.9,77.6,29.3,83.2,25.2,87.6L25.2,87.6z M53.2,68.5c-1.3,3.2-4.1,11.6-5.9,11.2
	c-1.5-0.4-2.4-6.7-0.3-12.9c1.1-3.2,3.2-6.9,4.5-8.4c2.1-2.4,4.4-3.1,4.9-2.1C57.4,57.4,54.2,66.5,53.2,68.5z M76.4,79.6
	c-0.5,0.3-1.1,0.5-1.3,0.4c-0.1-0.1,0.3-0.5,0.3-0.5s2.9-3.1,4-4.5c0.7-0.8,1.5-1.7,2.3-2.9v0.3C81.6,76,78,78.5,76.4,79.6z
	 M94.2,75.5c-0.4-0.3-0.4-1.3,1.1-4.3c0.5-1.2,1.7-3.2,4-5.1c0.3,0.8,0.4,1.6,0.4,2.3C99.6,73.1,96.3,74.8,94.2,75.5z"/>
</svg>
