<?xml version="1.0" encoding="utf-8"?>
<!-- Generator: Adobe Illustrator 26.0.3, SVG Export Plug-In . SVG Version: 6.00 Build 0)  -->
<svg version="1.1" id="Livello_1" xmlns="http://www.w3.org/2000/svg" xmlns:xlink="http://www.w3.org/1999/xlink" x="0px" y="0px"
	 width="100px" height="100px" viewBox="0 0 100 100" style="enable-background:new 0 0 100 100;" xml:space="preserve">
<style type="text/css">
	.st0{fill-rule:evenodd;clip-rule:evenodd;fill:url(#SVGID_1_);}
	.st1{fill-rule:evenodd;clip-rule:evenodd;fill:#FFFFFF;}
</style>
<g>
	<linearGradient id="SVGID_1_" gradientUnits="userSpaceOnUse" x1="50" y1="100" x2="50" y2="0.7988">
		<stop  offset="0" style="stop-color:#2AABEE"/>
		<stop  offset="1" style="stop-color:#229ED9"/>
	</linearGradient>
	<circle class="st0" cx="50" cy="50" r="50"/>
</g>
<g id="Artboard">
	<path id="Path-3" class="st1" d="M24.5,48.2c14.6-6.3,24.3-10.5,29.1-12.6c13.9-5.8,16.8-6.8,18.7-6.8c0.4,0,1.3,0.1,2,0.6
		c0.5,0.4,0.6,1,0.7,1.4c0.1,0.4,0.2,1.3,0.1,2c-0.7,7.9-4,27.1-5.7,35.9c-0.7,3.7-2.1,5-3.4,5.1c-2.9,0.2-5.1-1.9-7.9-3.7
		c-4.4-2.9-6.9-4.7-11.2-7.5c-5-3.2-1.7-5,1.1-8c0.7-0.7,13.5-12.4,13.8-13.4c0-0.1,0-0.6-0.2-0.9c-0.3-0.2-0.7-0.2-1-0.1
		c-0.5,0.1-7.5,4.7-21.1,13.9c-2,1.4-3.8,2-5.4,2c-1.8,0-5.2-1-7.8-1.8c-3.1-1-5.6-1.5-5.4-3.3C20.9,50,22.2,49.1,24.5,48.2z"/>
</g>
</svg>
